<svg
  width="40"
  height="40"
  viewBox="0 0 40 40"
  fill="none"
  xmlns="http://www.w3.org/2000/svg"
>
  <defs>
    <linearGradient id="gradPrimary" x1="0%" y1="0%" x2="100%" y2="100%">
      <stop offset="0%" stop-color="#F266FF" />
      <stop offset="100%" stop-color="#C850F0" />
    </linearGradient>
    <linearGradient id="gradSecondary" x1="100%" y1="0%" x2="0%" y2="100%">
      <stop offset="0%" stop-color="#3BE6B4" />
      <stop offset="100%" stop-color="#32C8A0" />
    </linearGradient>
    <linearGradient id="gradBackground" x1="0%" y1="0%" x2="100%" y2="100%">
      <stop offset="0%" stop-color="#1A1930" />
      <stop offset="100%" stop-color="#252545" />
    </linearGradient>
    <linearGradient id="gradBorder" x1="0%" y1="0%" x2="100%" y2="100%">
      <stop offset="0%" stop-color="#3BE6B4" stop-opacity="0.5" />
      <stop offset="50%" stop-color="#F266FF" stop-opacity="0.5" />
      <stop offset="100%" stop-color="#3BE6B4" stop-opacity="0.5" />
    </linearGradient>
    <filter id="shadow" x="-20%" y="-20%" width="140%" height="140%">
      <feGaussianBlur stdDeviation="1" />
    </filter>
    <mask id="borderMask">
      <rect x="0" y="0" width="40" height="40" fill="white" />
      <rect x="3" y="3" width="34" height="34" rx="13" fill="black" />
    </mask>
  </defs>
  
  <!-- 边框 -->
  <rect
    x="1"
    y="1"
    width="38"
    height="38"
    rx="15"
    fill="url(#gradBorder)"
    mask="url(#borderMask)"
  />
  
  <!-- 基础背景圆角矩形 -->
  <rect
    x="2"
    y="2"
    width="36"
    height="36"
    rx="14"
    fill="url(#gradBackground)"
    filter="url(#shadow)"
  />
  
  <!-- 字母L造型，代表Live -->
  <path
    d="M12 10v14h8"
    stroke="url(#gradPrimary)"
    stroke-width="5"
    stroke-linecap="round"
    stroke-linejoin="round"
  />
  
  <!-- 字母E造型，代表Echo -->
  <path
    d="M28 10v14M22 10h8M22 17h6M22 24h8"
    stroke="url(#gradSecondary)"
    stroke-width="3"
    stroke-linecap="round"
    stroke-linejoin="round"
  />
  
  <!-- 点缀圆点，增加多巴胺风格 -->
  <circle cx="12" cy="10" r="2.5" fill="url(#gradPrimary)" />
  <circle cx="28" cy="10" r="2" fill="url(#gradSecondary)" />
  <circle cx="20" cy="30" r="2" fill="#FFFFFF" opacity="0.6" />
</svg>